<svg width="24" height="19" viewBox="0 0 24 19" fill="none" xmlns="http://www.w3.org/2000/svg">
<path d="M20.3672 0.971189C20.2906 0.998533 20.143 1.05869 20.0391 1.10791C19.9352 1.1626 17.2938 3.75478 14.1711 6.87197L8.50002 12.5431L6.32346 10.372C4.83596 8.88994 4.0758 8.16807 3.90627 8.08057C3.53439 7.89463 2.9383 7.87275 2.51174 8.03682C2.23283 8.14072 2.09064 8.25557 1.52189 8.81885C0.734394 9.61182 0.608613 9.8251 0.603144 10.4376C0.592206 11.2251 0.389863 10.979 4.31096 14.9165C6.69533 17.3118 7.88752 18.4657 8.03518 18.5368C8.31408 18.6681 8.68596 18.6681 8.96486 18.5368C9.11799 18.4657 11.3383 16.2782 16.1891 11.4165C24.0094 3.58525 23.4078 4.24697 23.3969 3.4376C23.3914 2.8251 23.2656 2.61181 22.4781 1.81885C21.9203 1.26103 21.7672 1.14072 21.4992 1.04228C21.1766 0.921972 20.6461 0.889158 20.3672 0.971189Z" fill="white"/>
</svg>
