<svg width="34" height="34" viewBox="0 0 34 34" fill="none" xmlns="http://www.w3.org/2000/svg">
<path fill-rule="evenodd" clip-rule="evenodd" d="M21.6618 23.3988C19.9102 24.7766 17.7007 25.5985 15.2993 25.5985C9.61113 25.5985 5 20.9874 5 15.2993C5 9.61113 9.61113 5 15.2993 5C20.9874 5 25.5985 9.61113 25.5985 15.2993C25.5985 17.9634 24.5869 20.3913 22.9269 22.2198L28.7844 28.0773C29.1218 28.4147 29.1218 28.9619 28.7844 29.2993C28.4469 29.6368 27.8998 29.6368 27.5623 29.2993L21.6618 23.3988ZM15.2993 24.5985C10.1634 24.5985 6 20.4351 6 15.2993C6 10.1634 10.1634 6 15.2993 6C20.4351 6 24.5985 10.1634 24.5985 15.2993C24.5985 17.9008 23.5315 20.2514 21.8087 21.9403C20.1303 23.5856 17.8341 24.5985 15.2993 24.5985Z" fill="black"/>
<path d="M21.6618 23.3988L21.8385 23.222L21.6816 23.0651L21.5072 23.2023L21.6618 23.3988ZM22.9269 22.2198L22.7418 22.0518L22.5817 22.2282L22.7502 22.3966L22.9269 22.2198ZM28.7844 28.0773L28.6076 28.254L28.7844 28.0773ZM21.8087 21.9403L21.9837 22.1188L21.8087 21.9403ZM21.5072 23.2023C19.7981 24.5467 17.6427 25.3485 15.2993 25.3485V25.8485C17.7587 25.8485 20.0223 25.0065 21.8163 23.5953L21.5072 23.2023ZM15.2993 25.3485C9.7492 25.3485 5.25 20.8493 5.25 15.2993H4.75C4.75 21.1254 9.47306 25.8485 15.2993 25.8485V25.3485ZM5.25 15.2993C5.25 9.7492 9.7492 5.25 15.2993 5.25V4.75C9.47306 4.75 4.75 9.47306 4.75 15.2993H5.25ZM15.2993 5.25C20.8493 5.25 25.3485 9.7492 25.3485 15.2993H25.8485C25.8485 9.47306 21.1254 4.75 15.2993 4.75V5.25ZM25.3485 15.2993C25.3485 17.8989 24.3617 20.2675 22.7418 22.0518L23.112 22.3879C24.8122 20.5152 25.8485 18.0279 25.8485 15.2993H25.3485ZM22.7502 22.3966L28.6076 28.254L28.9611 27.9005L23.1037 22.0431L22.7502 22.3966ZM28.6076 28.254C28.8474 28.4939 28.8474 28.8827 28.6076 29.1225L28.9611 29.4761C29.3962 29.041 29.3962 28.3356 28.9611 27.9005L28.6076 28.254ZM28.6076 29.1225C28.3678 29.3624 27.9789 29.3624 27.7391 29.1225L27.3855 29.4761C27.8206 29.9112 28.526 29.9112 28.9611 29.4761L28.6076 29.1225ZM27.7391 29.1225L21.8385 23.222L21.485 23.5756L27.3855 29.4761L27.7391 29.1225ZM5.75 15.2993C5.75 20.5732 10.0253 24.8485 15.2993 24.8485V24.3485C10.3015 24.3485 6.25 20.297 6.25 15.2993H5.75ZM15.2993 5.75C10.0253 5.75 5.75 10.0253 5.75 15.2993H6.25C6.25 10.3015 10.3015 6.25 15.2993 6.25V5.75ZM24.8485 15.2993C24.8485 10.0253 20.5732 5.75 15.2993 5.75V6.25C20.297 6.25 24.3485 10.3015 24.3485 15.2993H24.8485ZM21.9837 22.1188C23.7525 20.3848 24.8485 17.9707 24.8485 15.2993H24.3485C24.3485 17.831 23.3105 20.118 21.6337 21.7618L21.9837 22.1188ZM15.2993 24.8485C17.9021 24.8485 20.2605 23.8081 21.9837 22.1188L21.6337 21.7618C20.0001 23.3631 17.766 24.3485 15.2993 24.3485V24.8485Z" fill="black"/>
</svg>
