<svg width="50" height="50" xmlns="http://www.w3.org/2000/svg">
 <g id="Layer_1">
  <title>Layer 1</title>
  <path fill="none" id="svg_1" d="m304,48c0,-1 -4.23737,0.73765 -12,8c-9.29453,8.69551 -20.79236,21.18252 -34,36c-10.8318,12.15204 -25.63721,24.40937 -38,35c-9.72559,8.33145 -19.92725,18.12624 -32,25c-8.94707,5.09412 -17.22018,12.2003 -29,19c-8.5298,4.92368 -15.88855,8.19409 -21,11c-1.96014,1.07602 -4.29289,2.29289 -5,3c-0.70711,0.70711 -0.86829,2.28859 -5,4c-2.92156,1.21014 -8.22273,3.72398 -12,7c-4.27349,3.70638 -7,6 -9,8c-2,2 -4.87766,6.06601 -6,8c-1.80972,3.11848 -5.69238,6.41092 -9,11c-2.61491,3.62799 -4.72399,7.22273 -8,11c-3.70638,4.2735 -7.20681,7.81265 -9,10c-2.28588,2.78833 -4.186,4.69255 -6,6c-1.14727,0.8269 -0.29289,2.29289 -1,3c-0.70711,0.70711 -2,1 -2,2l-1,1" stroke="#000"/>
  <path fill="none" stroke="#000" id="svg_2" d="m63,264c2,2 7.23682,7.77094 14,15c7.26234,7.76263 18.60786,16.61481 34,26c17.58087,10.71976 39.59033,24.92148 68,37c30.59151,13.00613 64.32298,25.19684 95,38c29.32867,12.24045 48.64154,22.84323 69,31c16.73456,6.70483 36.97037,20.06326 54,28c12.9776,6.04828 29.60486,16.86575 42,22c11.68625,4.84061 23.30539,8.36166 28,11c4.35883,2.44962 7.38062,6.44351 13,8c1.92743,0.53387 3,1 6,2l0,-1l-1,-2l-3,-4"/>
  <path fill="none" stroke="#000" id="svg_3" d="m83,261c2,0 7,0 15,0c13,0 28,0 42,0c20,0 42,0 67,0c22,0 43,0 63,0c22,0 41,0 57,0c25,0 39,0 55,0c15,0 28,0 41,0c14,0 27,0 49,0c22,0 55,0 87,0c30,0 63,0 90,0c19,0 34,0 46,0c9,0 16,0 20,0c2,0 3,0 4,0c1,0 2,0 6,0c4,0 8,0 13,0l3,0l3,0l1,0"/>
  <path fill="none" stroke="#000" id="svg_4" d="m34.52381,2.61905c-0.95238,0 -1.90476,0 -2.85715,0c-0.95238,0 -1.97946,0.75224 -4.7619,1.90476c-3.93497,1.62992 -4.76191,2.85714 -5.71429,3.80952c-0.95238,0.95238 -2.68993,1.04561 -3.80952,2.85714c-1.00139,1.62029 -0.58792,2.92964 -0.95238,3.80952c-0.51542,1.24435 -1.90476,1.90476 -1.90476,2.85714c0,0.95238 -0.43696,1.6128 -0.95238,2.85714c-0.36446,0.87988 -0.73357,0.97786 -0.95238,1.90476c-0.48928,2.07262 -1.90476,2.85714 -2.85714,3.80952c-0.95238,0.95238 -2.85714,0 -2.85714,0.95238c0,0.95238 2.85714,0.95238 4.76191,2.85714c1.90476,1.90476 3.22559,4.68344 5.71429,5.71429c0.87988,0.36446 1.99799,1.73755 3.80952,2.85714c0.81014,0.5007 0.95238,0.95238 1.90476,0.95238c0.95238,0 0.95238,0.95238 1.90476,0.95238l0.95238,0l0,0.95238"/>
  <path fill="none" stroke="#000" id="svg_5" d="m17.38095,23.57143c0,0.95238 1.90476,0.95238 3.80952,0.95238c2.85714,0 5.71429,0 10.47619,0c2.85715,0 6.66667,0 7.61905,0c2.85714,0 5.71429,0 6.66667,0c1.90476,0 2.85714,0 3.80952,0l0.95238,0l0.95238,0l0.95238,0"/>
 </g>

</svg>