<svg width="26" height="25" viewBox="0 0 26 25" fill="none" xmlns="http://www.w3.org/2000/svg">
<path fill-rule="evenodd" clip-rule="evenodd" d="M5.03814 6.84139L5.8096 16.017C5.86589 16.7232 6.44289 17.2529 7.14782 17.2529H7.15294H21.1121H21.1147C21.7812 17.2529 22.3506 16.7565 22.4452 16.0976L23.6606 7.70624C23.6888 7.50666 23.6389 7.30708 23.5173 7.14588C23.3971 6.9834 23.2205 6.87849 23.0209 6.85035C22.7536 6.86058 11.6576 6.84523 5.03814 6.84139ZM7.1452 19.172C5.46028 19.172 4.03378 17.8568 3.89689 16.1744L2.72499 2.23696L0.796976 1.90432C0.273715 1.81221 -0.0755531 1.31709 0.0140028 0.793832C0.106117 0.27057 0.611468 -0.0697422 1.12322 0.0121374L3.7843 0.47271C4.21289 0.548193 4.53913 0.903857 4.57623 1.33884L4.87688 4.92235C23.1412 4.93003 23.2 4.93899 23.2883 4.94922C24.0009 5.05285 24.6278 5.42515 25.0551 5.9983C25.4824 6.57018 25.6615 7.27511 25.5592 7.98133L24.345 16.3714C24.116 17.9681 22.7292 19.172 21.1172 19.172H21.1108H7.15544H7.1452Z" fill="white"/>
<path fill-rule="evenodd" clip-rule="evenodd" d="M19.0598 11.5704H15.5134C14.9825 11.5704 14.5539 11.1406 14.5539 10.6109C14.5539 10.0812 14.9825 9.65137 15.5134 9.65137H19.0598C19.5895 9.65137 20.0194 10.0812 20.0194 10.6109C20.0194 11.1406 19.5895 11.5704 19.0598 11.5704Z" fill="#48B84A"/>
<path fill-rule="evenodd" clip-rule="evenodd" d="M6.59484 22.6475C6.97993 22.6475 7.29082 22.9583 7.29082 23.3434C7.29082 23.7285 6.97993 24.0407 6.59484 24.0407C6.20847 24.0407 5.89758 23.7285 5.89758 23.3434C5.89758 22.9583 6.20847 22.6475 6.59484 22.6475Z" fill="white"/>
<mask id="mask0_19_48" style="mask-type:alpha" maskUnits="userSpaceOnUse" x="5" y="22" width="3" height="3">
<path fill-rule="evenodd" clip-rule="evenodd" d="M5.89691 23.3429C5.89691 23.7293 6.2078 24.0415 6.59545 24.0415C6.98054 24.0415 7.29142 23.7293 7.29142 23.3429C7.29142 22.9579 6.98054 22.647 6.59545 22.647C6.2078 22.647 5.89691 22.9579 5.89691 23.3429Z" fill="white"/>
</mask>
<g mask="url(#mask0_19_48)">
<path fill-rule="evenodd" clip-rule="evenodd" d="M-0.498718 30.4369H13.6882V16.25H-0.498718V30.4369Z" fill="white"/>
</g>
<path fill-rule="evenodd" clip-rule="evenodd" d="M6.59367 23.0807C6.4491 23.0807 6.3314 23.1984 6.3314 23.343C6.3314 23.6334 6.85722 23.6334 6.85722 23.343C6.85722 23.1984 6.73824 23.0807 6.59367 23.0807ZM6.59355 24.9998C5.68008 24.9998 4.93805 24.2565 4.93805 23.343C4.93805 22.4295 5.68008 21.6875 6.59355 21.6875C7.50702 21.6875 8.25033 22.4295 8.25033 23.343C8.25033 24.2565 7.50702 24.9998 6.59355 24.9998Z" fill="#48B84A"/>
<path fill-rule="evenodd" clip-rule="evenodd" d="M21.0265 22.647C21.4116 22.647 21.7237 22.9579 21.7237 23.3429C21.7237 23.728 21.4116 24.0402 21.0265 24.0402C20.6401 24.0402 20.3292 23.728 20.3292 23.3429C20.3292 22.9579 20.6401 22.647 21.0265 22.647Z" fill="white"/>
<mask id="mask1_19_48" style="mask-type:alpha" maskUnits="userSpaceOnUse" x="20" y="22" width="2" height="3">
<path fill-rule="evenodd" clip-rule="evenodd" d="M20.3295 23.3429C20.3295 23.7293 20.6404 24.0415 21.0268 24.0415C21.4106 24.0415 21.724 23.7293 21.724 23.3429C21.724 22.9579 21.4106 22.647 21.0268 22.647C20.6404 22.647 20.3295 22.9579 20.3295 23.3429Z" fill="white"/>
</mask>
<g mask="url(#mask1_19_48)">
<path fill-rule="evenodd" clip-rule="evenodd" d="M13.9327 30.4369H28.1209V16.25H13.9327V30.4369Z" fill="white"/>
</g>
<path fill-rule="evenodd" clip-rule="evenodd" d="M21.0253 23.0807C20.882 23.0807 20.7643 23.1984 20.7643 23.343C20.7656 23.6359 21.2901 23.6334 21.2888 23.343C21.2888 23.1984 21.1698 23.0807 21.0253 23.0807ZM21.0252 24.9998C20.1117 24.9998 19.3697 24.2565 19.3697 23.343C19.3697 22.4295 20.1117 21.6875 21.0252 21.6875C21.9399 21.6875 22.6833 22.4295 22.6833 23.343C22.6833 24.2565 21.9399 24.9998 21.0252 24.9998Z" fill="#48B84A"/>
</svg>
