<svg width="34" height="34" viewBox="0 0 34 34" fill="none" xmlns="http://www.w3.org/2000/svg">
<path fill-rule="evenodd" clip-rule="evenodd" d="M12.1566 3.98063C12.5972 3.63561 12.9505 3.39578 13.3146 3.23804C13.6698 3.08421 14.0556 3 14.5657 3C15.0758 3 15.4617 3.08421 15.8168 3.23804C16.181 3.39578 16.5342 3.63561 16.9749 3.98063C17.7273 4.56978 18.0351 5.05066 18.4596 5.9704C18.6491 6.38094 18.749 6.89068 18.7884 7.43478H15.1092H10.3431C10.3825 6.89068 10.4824 6.38094 10.6719 5.9704C11.0964 5.05066 11.4042 4.56978 12.1566 3.98063ZM9.33021 8.43478C9.34076 8.71898 9.3613 8.99373 9.38683 9.2504C9.44431 9.82833 9.53036 10.3427 9.60194 10.7125C9.63779 10.8977 9.67017 11.0474 9.69378 11.1516C9.70559 11.2038 9.71522 11.2446 9.72202 11.2728L9.73 11.3056L9.73224 11.3146L9.7329 11.3172L9.73311 11.318L9.73319 11.3183C9.73322 11.3184 9.73324 11.3185 10.2179 11.1957C10.7026 11.0728 10.7026 11.0728 10.7026 11.0729L10.7026 11.0728L10.7023 11.0716L10.7008 11.0655L10.6942 11.0388C10.6884 11.0147 10.6798 10.9782 10.6691 10.9307C10.6475 10.8356 10.6174 10.6962 10.5837 10.5224C10.5163 10.1743 10.4356 9.69131 10.3819 9.15142C10.3586 8.91679 10.3409 8.67619 10.3312 8.43478H15.1092H18.8003C18.7906 8.67619 18.7729 8.91679 18.7495 9.15142C18.6958 9.69131 18.6151 10.1743 18.5477 10.5224C18.5141 10.6962 18.4839 10.8356 18.4624 10.9307C18.4516 10.9782 18.443 11.0147 18.4372 11.0388L18.4307 11.0655L18.4292 11.0716L18.4289 11.0728L18.4289 11.0729C18.4289 11.0728 18.4289 11.0728 18.9136 11.1957C19.3982 11.3185 19.3982 11.3184 19.3983 11.3183L19.3983 11.318L19.3986 11.3172L19.3992 11.3146L19.4015 11.3056L19.4094 11.2728C19.4162 11.2446 19.4259 11.2038 19.4377 11.1516C19.4613 11.0474 19.4937 10.8977 19.5295 10.7125C19.6011 10.3427 19.6872 9.82833 19.7446 9.2504C19.7702 8.99373 19.7907 8.71898 19.8012 8.43478H22.2578L23.6695 25.3754C23.7424 26.25 23.0523 27 22.1747 27H7.50017C6.62261 27 5.93248 26.25 6.00535 25.3754L7.41708 8.43478H9.33021ZM9.34078 7.43478C9.38326 6.77218 9.50532 6.11166 9.76393 5.55134C10.2288 4.54402 10.6214 3.91262 11.5401 3.19328C11.9994 2.83367 12.4333 2.53001 12.9172 2.32043C13.41 2.10695 13.9329 2 14.5657 2C15.1986 2 15.7215 2.10695 16.2143 2.32043C16.6981 2.53001 17.1321 2.83367 17.5914 3.19328C18.51 3.91262 18.9026 4.54402 19.3675 5.55134C19.6261 6.11166 19.7482 6.77218 19.7907 7.43478H22.7179H23.1779L23.2162 7.89326L24.6661 25.2924C24.7875 26.7499 23.6373 28 22.1747 28H7.50017C6.03757 28 4.88735 26.7499 5.00881 25.2924L6.45874 7.89326L6.49694 7.43478H6.95701H9.34078Z" fill="black"/>
<path d="M13.3146 3.23804L13.414 3.46745L13.3146 3.23804ZM12.1566 3.98063L12.0025 3.78379L12.1566 3.98063ZM15.8168 3.23804L15.9162 3.00864L15.8168 3.23804ZM16.9749 3.98063L16.8207 4.17747V4.17747L16.9749 3.98063ZM18.4596 5.9704L18.6866 5.86563V5.86563L18.4596 5.9704ZM18.7884 7.43478V7.68478H19.0571L19.0377 7.41673L18.7884 7.43478ZM10.3431 7.43478L10.0938 7.41673L10.0743 7.68478H10.3431V7.43478ZM10.6719 5.9704L10.8989 6.07516L10.6719 5.9704ZM9.38683 9.2504L9.13806 9.27514L9.38683 9.2504ZM9.33021 8.43478L9.58004 8.42551L9.57111 8.18478H9.33021V8.43478ZM9.60194 10.7125L9.3565 10.76L9.60194 10.7125ZM9.69378 11.1516L9.44996 11.2069V11.2069L9.69378 11.1516ZM9.72202 11.2728L9.47896 11.3313L9.47913 11.332L9.72202 11.2728ZM9.73 11.3056L9.48711 11.3647L9.48739 11.3659L9.73 11.3056ZM9.73224 11.3146L9.48963 11.3749L9.48978 11.3755L9.73224 11.3146ZM9.7329 11.3172L9.49043 11.3781L9.49051 11.3784L9.7329 11.3172ZM9.73311 11.318L9.49073 11.3793L9.49076 11.3794L9.73311 11.318ZM9.73319 11.3183L9.97572 11.2577L9.97554 11.257L9.73319 11.3183ZM10.7026 11.0729L10.4603 11.1343L10.9451 11.0123L10.7026 11.0729ZM10.7026 11.0728L10.4601 11.1337L10.4602 11.1342L10.7026 11.0728ZM10.7023 11.0716L10.4597 11.1319L10.4598 11.1325L10.7023 11.0716ZM10.7008 11.0655L10.4579 11.1247L10.4581 11.1258L10.7008 11.0655ZM10.6942 11.0388L10.4512 11.0973L10.4514 11.098L10.6942 11.0388ZM10.6691 10.9307L10.9129 10.8754L10.9129 10.8754L10.6691 10.9307ZM10.5837 10.5224L10.8292 10.4749L10.5837 10.5224ZM10.3819 9.15142L10.1331 9.17617V9.17617L10.3819 9.15142ZM10.3312 8.43478V8.18478H10.0709L10.0814 8.44485L10.3312 8.43478ZM18.8003 8.43478L19.0501 8.44485L19.0606 8.18478H18.8003V8.43478ZM18.7495 9.15142L18.5008 9.12668V9.12668L18.7495 9.15142ZM18.5477 10.5224L18.7932 10.5699V10.5699L18.5477 10.5224ZM18.4624 10.9307L18.2186 10.8754V10.8755L18.4624 10.9307ZM18.4372 11.0388L18.6801 11.098L18.6803 11.0973L18.4372 11.0388ZM18.4307 11.0655L18.6733 11.1258L18.6736 11.1247L18.4307 11.0655ZM18.4292 11.0716L18.6716 11.1326L18.6718 11.1319L18.4292 11.0716ZM18.4289 11.0728L18.6712 11.1342L18.6713 11.1338L18.4289 11.0728ZM18.4289 11.0729L18.1865 11.0115L18.6705 11.1371L18.4289 11.0729ZM18.9136 11.1957L18.975 10.9533L18.9136 11.1957ZM19.3983 11.3183L19.6403 11.3809L19.6407 11.3793L19.3983 11.3183ZM19.3983 11.318L19.1559 11.2569L19.1559 11.257L19.3983 11.318ZM19.3986 11.3172L19.641 11.3783L19.641 11.3781L19.3986 11.3172ZM19.3992 11.3146L19.6417 11.3755L19.6418 11.3749L19.3992 11.3146ZM19.4015 11.3056L19.6441 11.3659L19.6444 11.3647L19.4015 11.3056ZM19.4094 11.2728L19.6523 11.332L19.6525 11.3313L19.4094 11.2728ZM19.4377 11.1516L19.1939 11.0964L19.1939 11.0964L19.4377 11.1516ZM19.5295 10.7125L19.2841 10.665V10.665L19.5295 10.7125ZM19.7446 9.2504L19.9934 9.27514V9.27514L19.7446 9.2504ZM19.8012 8.43478V8.18478H19.5604L19.5514 8.42551L19.8012 8.43478ZM22.2578 8.43478L22.507 8.41402L22.4878 8.18478H22.2578V8.43478ZM23.6695 25.3754L23.4204 25.3962L23.6695 25.3754ZM6.00535 25.3754L5.75622 25.3547L6.00535 25.3754ZM7.41708 8.43478V8.18478H7.18704L7.16794 8.41402L7.41708 8.43478ZM9.34078 7.43478V7.68478H9.57526L9.59027 7.45078L9.34078 7.43478ZM9.76393 5.55134L9.99091 5.65611V5.6561L9.76393 5.55134ZM11.5401 3.19328L11.386 2.99645L11.5401 3.19328ZM12.9172 2.32043L12.8178 2.09103V2.09103L12.9172 2.32043ZM16.2143 2.32043L16.1149 2.54983V2.54983L16.2143 2.32043ZM17.5914 3.19328L17.4372 3.39012V3.39012L17.5914 3.19328ZM19.3675 5.55134L19.1405 5.6561V5.65611L19.3675 5.55134ZM19.7907 7.43478L19.5412 7.45078L19.5562 7.68478H19.7907V7.43478ZM23.1779 7.43478L23.4271 7.41402L23.408 7.18478H23.1779V7.43478ZM23.2162 7.89326L22.967 7.91402V7.91402L23.2162 7.89326ZM24.6661 25.2924L24.9152 25.2716L24.6661 25.2924ZM5.00881 25.2924L4.75967 25.2716H4.75967L5.00881 25.2924ZM6.45874 7.89326L6.2096 7.8725L6.45874 7.89326ZM6.49694 7.43478V7.18478H6.26691L6.24781 7.41402L6.49694 7.43478ZM13.2153 3.00864C12.8212 3.17935 12.4477 3.43516 12.0025 3.78379L12.3107 4.17747C12.7468 3.83605 13.0798 3.61221 13.414 3.46745L13.2153 3.00864ZM14.5657 2.75C14.0249 2.75 13.6048 2.8399 13.2153 3.00864L13.414 3.46745C13.7347 3.32852 14.0863 3.25 14.5657 3.25V2.75ZM15.9162 3.00864C15.5266 2.8399 15.1065 2.75 14.5657 2.75V3.25C15.0451 3.25 15.3967 3.32852 15.7175 3.46745L15.9162 3.00864ZM17.129 3.78379C16.6838 3.43516 16.3103 3.17935 15.9162 3.00864L15.7175 3.46745C16.0517 3.61221 16.3847 3.83605 16.8207 4.17747L17.129 3.78379ZM18.6866 5.86563C18.252 4.92399 17.923 4.40549 17.129 3.78379L16.8207 4.17747C17.5316 4.73408 17.8182 5.17732 18.2326 6.07516L18.6866 5.86563ZM19.0377 7.41673C18.9972 6.857 18.8935 6.31409 18.6866 5.86563L18.2326 6.07516C18.4046 6.44779 18.5008 6.92436 18.539 7.45284L19.0377 7.41673ZM15.1092 7.68478H18.7884V7.18478H15.1092V7.68478ZM10.3431 7.68478H15.1092V7.18478H10.3431V7.68478ZM10.4449 5.86563C10.2379 6.31409 10.1343 6.857 10.0938 7.41673L10.5924 7.45284C10.6307 6.92436 10.7269 6.44779 10.8989 6.07516L10.4449 5.86563ZM12.0025 3.78379C11.2085 4.40549 10.8795 4.92399 10.4449 5.86563L10.8989 6.07516C11.3133 5.17732 11.5999 4.73408 12.3107 4.17747L12.0025 3.78379ZM9.6356 9.22565C9.6105 8.97326 9.59037 8.70374 9.58004 8.42551L9.08039 8.44405C9.09115 8.73423 9.1121 9.0142 9.13806 9.27514L9.6356 9.22565ZM9.84739 10.665C9.77685 10.3006 9.69214 9.79407 9.6356 9.22565L9.13806 9.27514C9.19648 9.86258 9.28386 10.3848 9.3565 10.76L9.84739 10.665ZM9.9376 11.0964C9.91451 10.9945 9.88268 10.8473 9.84739 10.665L9.3565 10.76C9.39291 10.9481 9.42583 11.1004 9.44996 11.2069L9.9376 11.0964ZM9.96508 11.2143C9.95853 11.1871 9.94915 11.1474 9.9376 11.0964L9.44996 11.2069C9.46203 11.2602 9.47192 11.3021 9.47896 11.3313L9.96508 11.2143ZM9.97289 11.2464L9.96491 11.2136L9.47913 11.332L9.48711 11.3647L9.97289 11.2464ZM9.97485 11.2542L9.97261 11.2452L9.48739 11.3659L9.48963 11.3749L9.97485 11.2542ZM9.97537 11.2563L9.97471 11.2537L9.48978 11.3755L9.49043 11.3781L9.97537 11.2563ZM9.9755 11.2568L9.97529 11.256L9.49051 11.3784L9.49073 11.3793L9.9755 11.2568ZM9.97554 11.257L9.97546 11.2567L9.49076 11.3794L9.49084 11.3797L9.97554 11.257ZM10.1565 10.9533C9.91412 11.0148 9.79302 11.0454 9.73252 11.0607C9.70218 11.0684 9.68735 11.0722 9.68015 11.074C9.67618 11.0749 9.6756 11.0751 9.67621 11.0749C9.67647 11.0749 9.67731 11.0747 9.67848 11.0744C9.67921 11.0742 9.68229 11.0735 9.68632 11.0728C9.68831 11.0724 9.69242 11.0716 9.69768 11.0709C9.70133 11.0703 9.71382 11.0686 9.72994 11.0684C9.73486 11.0683 9.79454 11.0654 9.85729 11.1013C9.89773 11.1244 9.93067 11.1583 9.95271 11.1987C9.96241 11.2165 9.96807 11.2321 9.9713 11.2421C9.9725 11.246 9.97418 11.2518 9.97471 11.2538C9.97522 11.2557 9.97572 11.2577 9.97572 11.2577L9.49065 11.379C9.49181 11.3836 9.51137 11.4795 9.60909 11.5354C9.67184 11.5712 9.73154 11.5684 9.73647 11.5683C9.75261 11.5681 9.76512 11.5663 9.7688 11.5658C9.77409 11.565 9.77826 11.5643 9.7803 11.5639C9.78445 11.5631 9.78771 11.5623 9.78871 11.5621C9.79014 11.5618 9.79135 11.5615 9.79208 11.5613C9.79459 11.5607 9.7978 11.5599 9.80141 11.559C9.80937 11.557 9.82485 11.5531 9.8551 11.5455C9.91578 11.5301 10.037 11.4994 10.2793 11.438L10.1565 10.9533ZM10.9451 11.0123C10.9451 11.0123 10.9442 11.0086 10.9432 11.0049C10.9421 11.0013 10.9387 10.9906 10.9361 10.9835C10.9287 10.9643 10.9162 10.9386 10.8944 10.9126C10.8482 10.8573 10.7919 10.8371 10.7598 10.8295C10.7302 10.8226 10.7062 10.8228 10.6973 10.8229C10.6862 10.8232 10.6774 10.8241 10.673 10.8247C10.6641 10.8257 10.6572 10.827 10.6553 10.8274C10.6524 10.828 10.6502 10.8284 10.649 10.8287C10.6455 10.8295 10.6423 10.8303 10.6422 10.8303C10.6404 10.8307 10.6378 10.8314 10.6341 10.8323C10.6263 10.8343 10.6109 10.8381 10.5807 10.8458C10.52 10.8612 10.3988 10.8919 10.1565 10.9533L10.2793 11.438C10.5217 11.3765 10.6428 11.3458 10.7033 11.3305C10.7337 11.3229 10.7486 11.3191 10.756 11.3172C10.7578 11.3168 10.7591 11.3164 10.76 11.3162C10.7609 11.316 10.7612 11.3159 10.7611 11.3159C10.761 11.316 10.7607 11.316 10.7601 11.3162C10.7597 11.3163 10.7581 11.3167 10.7559 11.3171C10.7549 11.3174 10.7526 11.3178 10.7498 11.3184C10.7479 11.3188 10.7411 11.3201 10.7322 11.3211C10.7278 11.3217 10.719 11.3226 10.7079 11.3228C10.699 11.323 10.675 11.3232 10.6454 11.3163C10.6133 11.3087 10.557 11.2885 10.5108 11.2332C10.489 11.2072 10.4765 11.1814 10.4691 11.1623C10.4665 11.1552 10.4631 11.1445 10.462 11.1409C10.461 11.1372 10.4601 11.1335 10.4601 11.1335L10.9451 11.0123ZM10.4602 11.1342L10.4603 11.1343L10.9449 11.0115L10.9449 11.0114L10.4602 11.1342ZM10.4598 11.1325L10.4601 11.1337L10.9451 11.0119L10.9447 11.0107L10.4598 11.1325ZM10.4581 11.1258L10.4597 11.1319L10.9449 11.0113L10.9434 11.0052L10.4581 11.1258ZM10.4514 11.098L10.4579 11.1247L10.9437 11.0063L10.9371 10.9796L10.4514 11.098ZM10.4252 10.9859C10.4363 11.0346 10.4451 11.0722 10.4512 11.0973L10.9373 10.9803C10.9318 10.9572 10.9234 10.9219 10.9129 10.8754L10.4252 10.9859ZM10.3383 10.5699C10.3725 10.7466 10.4032 10.8885 10.4252 10.9859L10.9129 10.8754C10.8918 10.7826 10.8622 10.6458 10.8292 10.4749L10.3383 10.5699ZM10.1331 9.17617C10.1878 9.72556 10.2698 10.2164 10.3383 10.5699L10.8292 10.4749C10.7628 10.1322 10.6834 9.65705 10.6307 9.12668L10.1331 9.17617ZM10.0814 8.44485C10.0913 8.6917 10.1094 8.93722 10.1331 9.17617L10.6307 9.12668C10.6078 8.89636 10.5905 8.66069 10.581 8.42472L10.0814 8.44485ZM15.1092 8.18478H10.3312V8.68478H15.1092V8.18478ZM18.8003 8.18478H15.1092V8.68478H18.8003V8.18478ZM18.9983 9.17617C19.0221 8.93722 19.0401 8.6917 19.0501 8.44485L18.5505 8.42472C18.541 8.66069 18.5237 8.89636 18.5008 9.12668L18.9983 9.17617ZM18.7932 10.5699C18.8616 10.2164 18.9437 9.72556 18.9983 9.17617L18.5008 9.12668C18.448 9.65705 18.3686 10.1322 18.3023 10.4749L18.7932 10.5699ZM18.7062 10.9859C18.7283 10.8885 18.759 10.7466 18.7932 10.5699L18.3023 10.4749C18.2692 10.6458 18.2396 10.7826 18.2186 10.8754L18.7062 10.9859ZM18.6803 11.0973C18.6863 11.0722 18.6952 11.0346 18.7062 10.9859L18.2186 10.8755C18.2081 10.9218 18.1997 10.9572 18.1942 10.9803L18.6803 11.0973ZM18.6736 11.1247L18.6801 11.098L18.1943 10.9796L18.1878 11.0063L18.6736 11.1247ZM18.6718 11.1319L18.6733 11.1258L18.1881 11.0052L18.1866 11.0113L18.6718 11.1319ZM18.6713 11.1338L18.6716 11.1326L18.1867 11.0106L18.1864 11.0118L18.6713 11.1338ZM18.6712 11.1343L18.6712 11.1342L18.1865 11.0114L18.1865 11.0115L18.6712 11.1343ZM18.975 10.9533C18.7327 10.8919 18.6115 10.8612 18.5508 10.8458C18.5205 10.8381 18.5052 10.8343 18.4974 10.8323C18.4937 10.8314 18.4911 10.8307 18.4892 10.8303C18.4891 10.8303 18.486 10.8295 18.4824 10.8287C18.4813 10.8284 18.479 10.828 18.4761 10.8274C18.4742 10.827 18.4673 10.8257 18.4584 10.8246C18.454 10.8241 18.4452 10.8232 18.4341 10.8229C18.4252 10.8228 18.4014 10.8226 18.3721 10.8294C18.3402 10.8369 18.2847 10.8567 18.2387 10.9107C18.1967 10.9598 18.1857 11.0145 18.1872 11.0087L18.6705 11.1371C18.672 11.1312 18.661 11.186 18.6191 11.2351C18.5731 11.2891 18.5175 11.3089 18.4857 11.3164C18.4563 11.3232 18.4325 11.323 18.4236 11.3228C18.4125 11.3226 18.4038 11.3217 18.3993 11.3211C18.3905 11.3201 18.3836 11.3188 18.3817 11.3184C18.3788 11.3179 18.3766 11.3174 18.3755 11.3171C18.3734 11.3167 18.3717 11.3163 18.3714 11.3162C18.3708 11.3161 18.3704 11.316 18.3704 11.3159C18.3703 11.3159 18.3706 11.316 18.3715 11.3162C18.3724 11.3164 18.3737 11.3168 18.3755 11.3172C18.3828 11.3191 18.3978 11.3229 18.4281 11.3305C18.4887 11.3458 18.6098 11.3765 18.8521 11.438L18.975 10.9533ZM19.1562 11.2558C19.155 11.2604 19.1617 11.2295 19.1796 11.1972C19.2017 11.1572 19.2346 11.1238 19.2748 11.101C19.3372 11.0655 19.3964 11.0683 19.4015 11.0684C19.4176 11.0686 19.4301 11.0703 19.4338 11.0709C19.439 11.0716 19.4431 11.0724 19.4451 11.0728C19.4492 11.0735 19.4522 11.0742 19.453 11.0744C19.4541 11.0747 19.455 11.0749 19.4552 11.0749C19.4559 11.0751 19.4553 11.0749 19.4513 11.074C19.4441 11.0722 19.4293 11.0684 19.3989 11.0607C19.3384 11.0454 19.2173 11.0148 18.975 10.9533L18.8521 11.438C19.0944 11.4994 19.2157 11.5301 19.2764 11.5455C19.3066 11.5531 19.3221 11.557 19.3301 11.559C19.3337 11.5599 19.3369 11.5607 19.3394 11.5613C19.3401 11.5615 19.3413 11.5618 19.3428 11.5621C19.3438 11.5623 19.347 11.5631 19.3512 11.5639C19.3532 11.5643 19.3574 11.565 19.3627 11.5658C19.3664 11.5663 19.3789 11.5681 19.395 11.5683C19.4001 11.5684 19.4593 11.5712 19.5218 11.5357C19.562 11.5129 19.5948 11.4795 19.617 11.4394C19.6348 11.4072 19.6415 11.3762 19.6403 11.3809L19.1562 11.2558ZM19.1559 11.257L19.1558 11.2573L19.6407 11.3793L19.6408 11.379L19.1559 11.257ZM19.1561 11.2561L19.1559 11.2569L19.6408 11.3791L19.641 11.3783L19.1561 11.2561ZM19.1568 11.2536L19.1561 11.2563L19.641 11.3781L19.6417 11.3755L19.1568 11.2536ZM19.1589 11.2452L19.1566 11.2542L19.6418 11.3749L19.6441 11.3659L19.1589 11.2452ZM19.1666 11.2136L19.1586 11.2464L19.6444 11.3647L19.6523 11.332L19.1666 11.2136ZM19.1939 11.0964C19.1823 11.1474 19.1729 11.1871 19.1664 11.2143L19.6525 11.3313C19.6595 11.302 19.6694 11.2602 19.6815 11.2069L19.1939 11.0964ZM19.2841 10.665C19.2488 10.8473 19.217 10.9945 19.1939 11.0964L19.6815 11.2069C19.7056 11.1004 19.7386 10.9481 19.775 10.76L19.2841 10.665ZM19.4959 9.22565C19.4393 9.79407 19.3546 10.3006 19.2841 10.665L19.775 10.76C19.8476 10.3848 19.935 9.86258 19.9934 9.27514L19.4959 9.22565ZM19.5514 8.42551C19.5411 8.70374 19.521 8.97326 19.4959 9.22565L19.9934 9.27514C20.0194 9.0142 20.0403 8.73423 20.0511 8.44405L19.5514 8.42551ZM22.2578 8.18478H19.8012V8.68478H22.2578V8.18478ZM23.9187 25.3547L22.507 8.41402L22.0087 8.45554L23.4204 25.3962L23.9187 25.3547ZM22.1747 27.25C23.1985 27.25 24.0037 26.375 23.9187 25.3547L23.4204 25.3962C23.4811 26.125 22.906 26.75 22.1747 26.75V27.25ZM7.50017 27.25H22.1747V26.75H7.50017V27.25ZM5.75622 25.3547C5.67119 26.375 6.47635 27.25 7.50017 27.25V26.75C6.76887 26.75 6.19376 26.125 6.25449 25.3962L5.75622 25.3547ZM7.16794 8.41402L5.75622 25.3547L6.25449 25.3962L7.66621 8.45554L7.16794 8.41402ZM9.33021 8.18478H7.41708V8.68478H9.33021V8.18478ZM9.59027 7.45078C9.63167 6.8051 9.74995 6.17819 9.99091 5.65611L9.53694 5.44658C9.26068 6.04513 9.13486 6.73926 9.09129 7.41879L9.59027 7.45078ZM9.99091 5.6561C10.4457 4.67067 10.8171 4.0769 11.6942 3.39012L11.386 2.99645C10.4257 3.74833 10.012 4.41737 9.53694 5.44658L9.99091 5.6561ZM11.6942 3.39012C12.1488 3.03419 12.5626 2.74647 13.0165 2.54983L12.8178 2.09103C12.3041 2.31355 11.8499 2.63315 11.386 2.99645L11.6942 3.39012ZM13.0165 2.54983C13.4749 2.35127 13.9636 2.25 14.5657 2.25V1.75C13.9022 1.75 13.3451 1.86263 12.8178 2.09103L13.0165 2.54983ZM14.5657 2.25C15.1679 2.25 15.6565 2.35127 16.1149 2.54983L16.3137 2.09103C15.7864 1.86263 15.2293 1.75 14.5657 1.75V2.25ZM16.1149 2.54983C16.5689 2.74647 16.9827 3.03419 17.4372 3.39012L17.7455 2.99645C17.2815 2.63315 16.8274 2.31355 16.3137 2.09103L16.1149 2.54983ZM17.4372 3.39012C18.3143 4.07691 18.6857 4.67067 19.1405 5.6561L19.5945 5.44658C19.1195 4.41737 18.7057 3.74833 17.7455 2.99645L17.4372 3.39012ZM19.1405 5.65611C19.3815 6.17819 19.4998 6.8051 19.5412 7.45078L20.0402 7.41879C19.9966 6.73927 19.8708 6.04513 19.5945 5.44658L19.1405 5.65611ZM19.7907 7.68478H22.7179V7.18478H19.7907V7.68478ZM22.7179 7.68478H23.1779V7.18478H22.7179V7.68478ZM22.9288 7.45554L22.967 7.91402L23.4653 7.8725L23.4271 7.41402L22.9288 7.45554ZM22.967 7.91402L24.4169 25.3132L24.9152 25.2716L23.4653 7.8725L22.967 7.91402ZM24.4169 25.3132C24.5263 26.6249 23.4911 27.75 22.1747 27.75V28.25C23.7836 28.25 25.0488 26.8749 24.9152 25.2716L24.4169 25.3132ZM22.1747 27.75H7.50017V28.25H22.1747V27.75ZM7.50017 27.75C6.18383 27.75 5.14863 26.6249 5.25794 25.3131L4.75967 25.2716C4.62606 26.8749 5.89131 28.25 7.50017 28.25V27.75ZM5.25794 25.3131L6.70787 7.91402L6.2096 7.8725L4.75967 25.2716L5.25794 25.3131ZM6.70787 7.91402L6.74608 7.45554L6.24781 7.41402L6.2096 7.8725L6.70787 7.91402ZM6.49694 7.68478H6.95701V7.18478H6.49694V7.68478ZM6.95701 7.68478H9.34078V7.18478H6.95701V7.68478Z" fill="black"/>
<circle cx="23.45" cy="24.7826" r="6.27174" fill="black" stroke="black" stroke-width="0.5"/>
<path d="M23.4506 21.9398C23.9999 21.9398 24.4159 22.1744 24.6986 22.6438C24.9813 23.1078 25.1226 23.7904 25.1226 24.6918C25.1226 25.5878 24.9786 26.2704 24.6906 26.7398C24.4079 27.2038 23.9946 27.4358 23.4506 27.4358C22.9013 27.4358 22.4853 27.2038 22.2026 26.7398C21.9199 26.2704 21.7786 25.5851 21.7786 24.6838C21.7786 23.7824 21.9199 23.0998 22.2026 22.6358C22.4853 22.1718 22.9013 21.9398 23.4506 21.9398ZM23.4506 22.3238C22.6559 22.3238 22.2586 23.1104 22.2586 24.6838C22.2586 26.2624 22.6559 27.0518 23.4506 27.0518C23.8399 27.0518 24.1333 26.8598 24.3306 26.4758C24.5333 26.0918 24.6346 25.4971 24.6346 24.6918C24.6346 23.8864 24.5333 23.2918 24.3306 22.9078C24.1333 22.5184 23.8399 22.3238 23.4506 22.3238Z" fill="white"/>
<path d="M24.6986 22.6438L24.2703 22.9017L24.2716 22.9039L24.6986 22.6438ZM24.6906 26.7398L24.2645 26.4783L24.2636 26.4796L24.6906 26.7398ZM22.2026 26.7398L21.7743 26.9977L21.7756 26.9999L22.2026 26.7398ZM24.3306 26.4758L23.8884 26.2424L23.8859 26.2472L24.3306 26.4758ZM24.3306 22.9078L23.8846 23.1339L23.8884 23.1412L24.3306 22.9078ZM23.4506 22.4398C23.8252 22.4398 24.0784 22.5831 24.2703 22.9017L25.1269 22.3858C24.7535 21.7658 24.1747 21.4398 23.4506 21.4398V22.4398ZM24.2716 22.9039C24.4846 23.2536 24.6226 23.8282 24.6226 24.6918H25.6226C25.6226 23.7527 25.4779 22.962 25.1256 22.3836L24.2716 22.9039ZM24.6226 24.6918C24.6226 25.5476 24.4827 26.1226 24.2645 26.4783L25.1168 27.0013C25.4745 26.4183 25.6226 25.628 25.6226 24.6918H24.6226ZM24.2636 26.4796C24.0718 26.7945 23.8205 26.9358 23.4506 26.9358V27.9358C24.1688 27.9358 24.7441 27.6131 25.1176 26.9999L24.2636 26.4796ZM23.4506 26.9358C23.0733 26.9358 22.8203 26.7927 22.6296 26.4796L21.7756 26.9999C22.1503 27.6149 22.7292 27.9358 23.4506 27.9358V26.9358ZM22.6309 26.4818C22.4164 26.1256 22.2786 25.5467 22.2786 24.6838H21.2786C21.2786 25.6235 21.4235 26.4153 21.7743 26.9977L22.6309 26.4818ZM22.2786 24.6838C22.2786 23.8202 22.4166 23.2456 22.6296 22.8959L21.7756 22.3756C21.4233 22.954 21.2786 23.7447 21.2786 24.6838H22.2786ZM22.6296 22.8959C22.8203 22.5829 23.0733 22.4398 23.4506 22.4398V21.4398C22.7292 21.4398 22.1503 21.7607 21.7756 22.3756L22.6296 22.8959ZM23.4506 21.8238C23.1655 21.8238 22.8935 21.8957 22.6537 22.054C22.4168 22.2103 22.2398 22.432 22.1103 22.6884C21.8586 23.1868 21.7586 23.8712 21.7586 24.6838H22.7586C22.7586 23.923 22.8573 23.4274 23.0029 23.1392C23.0721 23.0022 23.1434 22.9289 23.2045 22.8886C23.2627 22.8502 23.3384 22.8238 23.4506 22.8238V21.8238ZM21.7586 24.6838C21.7586 25.4989 21.8585 26.185 22.11 26.6846C22.2393 26.9415 22.4162 27.1638 22.6531 27.3207C22.8929 27.4795 23.1651 27.5518 23.4506 27.5518V26.5518C23.3388 26.5518 23.2633 26.5254 23.2052 26.4869C23.1441 26.4464 23.0726 26.3727 23.0032 26.235C22.8574 25.9452 22.7586 25.4473 22.7586 24.6838H21.7586ZM23.4506 27.5518C23.7314 27.5518 23.9995 27.4812 24.2364 27.3261C24.4705 27.1729 24.6462 26.9556 24.7753 26.7043L23.8859 26.2472C23.8177 26.3799 23.748 26.4506 23.6888 26.4894C23.6324 26.5264 23.5592 26.5518 23.4506 26.5518V27.5518ZM24.7728 26.7092C25.0336 26.215 25.1346 25.5201 25.1346 24.6918H24.1346C24.1346 25.4742 24.033 25.9685 23.8884 26.2424L24.7728 26.7092ZM25.1346 24.6918C25.1346 23.8635 25.0336 23.1685 24.7728 22.6744L23.8884 23.1412C24.033 23.415 24.1346 23.9094 24.1346 24.6918H25.1346ZM24.7766 22.6817C24.6481 22.4283 24.4731 22.2085 24.2391 22.0532C24.0019 21.8958 23.7328 21.8238 23.4506 21.8238V22.8238C23.5578 22.8238 23.63 22.8491 23.6861 22.8864C23.7454 22.9257 23.8158 22.998 23.8846 23.1338L24.7766 22.6817Z" fill="black"/>
</svg>
