<svg width="73" height="73" viewBox="0 0 73 73" fill="none" xmlns="http://www.w3.org/2000/svg">
<circle cx="36.2072" cy="36.2071" r="24.8235" transform="rotate(-37.4963 36.2072 36.2071)" fill="#C12633" stroke="white" stroke-width="2"/>
<path d="M33.4512 19.6307L37.1795 19.3088L39.359 51.1156L35.6608 51.4145L33.4512 19.6307ZM21.9278 29.9565C22.8926 29.2163 23.9365 28.7666 25.0596 28.6074C26.1673 28.4281 27.2507 28.5708 28.3097 29.0355C29.3888 29.4848 30.3293 30.232 31.1312 31.2772C31.9331 32.3224 32.4113 33.4243 32.5658 34.5829C32.7404 35.7261 32.6055 36.8195 32.1608 37.8631C31.7008 38.8866 30.9884 39.7685 30.0236 40.5087C29.0589 41.2488 28.0226 41.7086 26.9149 41.8879C25.8119 42.0317 24.7208 41.879 23.6417 41.4297C22.5827 40.965 21.6523 40.21 20.8504 39.1649C20.0485 38.1197 19.5603 37.0255 19.3856 35.8823C19.2311 34.7236 19.3738 33.6403 19.8137 32.6322C20.2583 31.5886 20.963 30.6967 21.9278 29.9565ZM23.7783 32.3684C22.9944 32.9698 22.6398 33.673 22.7145 34.4778C22.7938 35.2471 23.1573 36.0539 23.805 36.898C24.4372 37.7221 25.1223 38.2821 25.8603 38.5781C26.6183 38.8586 27.3893 38.6981 28.1732 38.0967C29.6203 36.9865 29.6114 35.4766 28.1464 33.5672C26.6815 31.6577 25.2254 31.2582 23.7783 32.3684ZM42.9877 30.5623C43.9524 29.8221 44.9964 29.3724 46.1195 29.2132C47.2272 29.0339 48.3106 29.1766 49.3696 29.6413C50.4286 30.106 51.359 30.861 52.1609 31.9061C52.9628 32.9513 53.451 34.0455 53.6257 35.1887C53.8003 36.3319 53.6653 37.4253 53.2207 38.4689C52.7607 39.4924 52.0483 40.3743 51.0835 41.1145C50.1188 41.8546 49.0825 42.3144 47.9748 42.4937C46.8517 42.6529 45.7506 42.5079 44.6715 42.0586C43.6124 41.5939 42.682 40.839 41.8801 39.7938C41.0783 38.7486 40.59 37.6544 40.4154 36.5112C40.2608 35.3526 40.4136 34.2615 40.8736 33.238C41.3182 32.1944 42.0229 31.3025 42.9877 30.5623ZM44.8382 32.9742C44.0543 33.5757 43.6997 34.2788 43.7743 35.0836C43.8537 35.8529 44.2172 36.6597 44.8649 37.5038C45.4971 38.3279 46.1822 38.8879 46.9202 39.1839C47.6782 39.4644 48.4492 39.3039 49.233 38.7025C50.6802 37.5923 50.6713 36.0824 49.2063 34.173C47.7414 32.2635 46.2853 31.864 44.8382 32.9742Z" fill="white"/>
</svg>
